<svg width="38" height="35" viewBox="0 0 38 35" fill="none" xmlns="http://www.w3.org/2000/svg">
<path d="M23.1218 17.0343C23.1121 17.0262 22.879 16.8218 22.4762 16.8218C22.2625 16.8218 22.0441 16.879 21.8256 16.9853C21.7867 17.0017 21.7624 17.0384 21.7721 17.0752C21.7721 17.0834 21.9324 17.9988 21.811 18.3912C21.7188 18.6855 21.4226 19.0329 20.8837 19.0329C20.7672 19.0329 20.6507 19.0164 20.5245 18.9879H20.5196L20.9275 18.7549C20.9566 18.7385 20.976 18.71 20.976 18.6773C20.976 18.6445 20.9566 18.62 20.9275 18.5996L20.1166 18.1296C20.374 17.9661 20.5342 17.8517 20.5536 17.8354C20.5779 17.8191 20.5925 17.7945 20.5925 17.77C20.5925 17.7455 20.5828 17.7209 20.5584 17.7005L20.4128 17.5779C20.3934 17.5616 20.3643 17.5493 20.3351 17.5493C20.3108 17.5493 20.2866 17.5575 20.2672 17.5697C20.2575 17.5738 20.0439 17.7127 19.7186 17.9007L19.3933 17.7127L20.6652 16.9772L20.7623 17.1897C20.7769 17.2223 20.8158 17.2468 20.8594 17.2468C20.8594 17.2468 20.8594 17.2468 20.8643 17.2468C20.9031 17.2468 20.942 17.2264 20.9614 17.1978L21.5682 16.2579C21.5877 16.2251 21.5829 16.1884 21.5634 16.1598C21.544 16.1352 21.51 16.1189 21.4712 16.1189C21.4664 16.1189 21.4614 16.1189 21.4566 16.1189L20.204 16.2783C20.1604 16.2824 20.1263 16.3069 20.1118 16.3437C20.1021 16.3763 20.1118 16.4131 20.1458 16.4377L20.3497 16.5888L18.9029 17.4267L17.461 16.5888L17.6649 16.4377C17.694 16.4131 17.7087 16.3763 17.6941 16.3437C17.6843 16.3069 17.6504 16.2824 17.6067 16.2783L16.3541 16.1189C16.3493 16.1189 16.3444 16.1189 16.3396 16.1189C16.3007 16.1189 16.2668 16.1311 16.2473 16.1598C16.223 16.1884 16.223 16.2251 16.2424 16.2579L16.8445 17.1978C16.8639 17.2264 16.9027 17.2468 16.9416 17.2468C16.9465 17.2468 16.9465 17.2468 16.9465 17.2468C16.9901 17.2468 17.0241 17.2223 17.0436 17.1897L17.1455 16.9772L18.4175 17.7127L18.0922 17.9007C17.7669 17.7127 17.5533 17.5738 17.5484 17.5697C17.529 17.5575 17.5048 17.5493 17.4805 17.5493C17.4513 17.5493 17.4222 17.5575 17.4028 17.5779L17.2572 17.7005C17.2377 17.7168 17.2231 17.7414 17.2231 17.77C17.2231 17.7945 17.2377 17.8191 17.262 17.8354C17.2863 17.8517 17.4465 17.9661 17.7038 18.1296L16.893 18.5996C16.8639 18.616 16.8445 18.6445 16.8445 18.6773C16.8445 18.71 16.8639 18.7345 16.893 18.7549L17.3008 18.9879C17.3008 18.9879 17.3008 18.9879 17.296 18.9879C17.1698 19.0164 17.0533 19.0329 16.9368 19.0329C16.3979 19.0329 16.0968 18.6855 16.0046 18.3912C15.8832 17.9988 16.0435 17.0834 16.0435 17.0752C16.0483 17.0384 16.0288 17.0017 15.99 16.9853C15.7667 16.879 15.5482 16.8218 15.3395 16.8218C14.9317 16.8218 14.6986 17.0221 14.6889 17.0343C14.6695 17.0466 14.6598 17.0712 14.6598 17.0875C14.6549 17.1447 14.5287 18.4647 15.257 19.135C15.524 19.3802 15.8784 19.5069 16.3007 19.5069C16.3736 19.5069 16.4561 19.5069 16.5338 19.4947C16.9465 19.4538 17.3494 19.3598 17.7426 19.2454L18.4175 19.6295L16.9271 20.4796C16.8979 20.5 16.8785 20.5246 16.8785 20.5572C16.8785 20.5858 16.893 20.6145 16.9271 20.6349L18.4223 21.5054L17.1455 22.2492L17.0484 22.0408C17.0339 22.008 16.995 21.9876 16.9513 21.9835C16.9513 21.9835 16.9513 21.9835 16.9465 21.9835C16.9076 21.9835 16.8688 22.0039 16.8494 22.0326L16.2473 22.9726C16.2279 23.0012 16.2327 23.0421 16.2521 23.0666C16.2716 23.0911 16.3056 23.1074 16.3444 23.1074C16.3493 23.1074 16.3541 23.1074 16.359 23.1074L17.6116 22.9522C17.6552 22.9481 17.6892 22.9194 17.699 22.8868C17.7135 22.8499 17.699 22.8132 17.6698 22.7887L17.461 22.6333L18.9078 21.7915L20.3545 22.6333L20.1458 22.7887C20.1118 22.8132 20.1021 22.8499 20.1118 22.8868C20.1215 22.9194 20.1604 22.9439 20.204 22.9522L21.4566 23.1074C21.4614 23.1074 21.4664 23.1074 21.4712 23.1074C21.5052 23.1074 21.5391 23.0952 21.5634 23.0666C21.5877 23.0379 21.5877 23.0012 21.5682 22.9726L20.9614 22.0326C20.942 22.0039 20.908 21.9835 20.8643 21.9835H20.8594C20.8109 21.9835 20.7769 22.008 20.7623 22.0408L20.6652 22.2492L19.3885 21.5054L20.8837 20.6349C20.9129 20.6186 20.9323 20.5899 20.9323 20.5572C20.9323 20.5246 20.9129 20.5 20.8837 20.4796L19.3933 19.6295L20.0681 19.2454C20.4565 19.3639 20.8594 19.4538 21.2721 19.4947C21.3547 19.5028 21.4323 19.5069 21.5052 19.5069C21.9324 19.5069 22.2819 19.3802 22.5489 19.135C23.2772 18.4647 23.151 17.1447 23.1461 17.0875C23.1461 17.0712 23.1364 17.0507 23.1218 17.0343ZM18.8981 18.0071L19.2185 18.191C19.1165 18.244 19.0097 18.3013 18.8981 18.3585C18.7864 18.3013 18.6796 18.2481 18.5776 18.191L18.8981 18.0071ZM17.7329 18.6814L18.1747 18.4239C18.2621 18.4689 18.3495 18.5179 18.4466 18.571C18.2718 18.6486 18.097 18.7222 17.9223 18.7917L17.7329 18.6814ZM20.039 20.5572L18.8981 21.2193L17.762 20.5572L18.8981 19.9074L20.039 20.5572ZM18.8981 19.3475L18.3495 19.0329C18.5437 18.9552 18.7233 18.8775 18.8981 18.7958C19.0729 18.8775 19.2574 18.9552 19.4515 19.0329L18.8981 19.3475ZM19.8788 18.7917C19.704 18.7263 19.5244 18.6527 19.3496 18.571C19.4467 18.522 19.5341 18.473 19.6215 18.4239L20.0681 18.6814L19.8788 18.7917Z" fill="#E6F7FF"/>
<path d="M23.5069 17.8106C23.5505 17.737 23.5699 17.598 23.5699 17.598L23.5069 17.5817V17.8106Z" fill="#E6F7FF"/>
<path d="M37.8526 14.537C37.3865 14.3 36.6146 14.2182 35.8281 14.2796C37.0564 13.9199 37.8962 13.1516 37.94 12.4649C37.2991 12.3097 36.634 12.3914 36.0563 12.5018C36.6534 12.1258 37.6341 11.4391 37.5128 10.4297C36.935 10.3112 35.8767 10.6504 35.4349 10.818C36.8525 10.1477 37.3623 8.56197 36.6098 7.66291C36.1631 7.88357 34.1387 9.6246 33.8085 9.82485C34.8572 8.81538 35.3475 8.09198 35.6291 7.41359C35.9641 6.67387 35.9884 5.38241 34.9009 4.9492C34.3862 5.93823 32.5901 8.47614 31.59 9.53061C31.4783 9.44886 31.3909 9.33853 31.2501 9.31803C31.0123 9.95968 30.3034 10.8139 29.6578 11.2226C29.6237 11.1694 29.5607 11.0223 29.449 10.8629C28.7645 11.7252 26.9876 12.9063 26.4147 13.6338C25.9681 14.1733 25.9681 14.6596 26.5896 15.1623C26.842 15.3748 27.3177 15.7467 26.9051 16.2698C26.342 16.9605 25.2108 17.0422 24.5991 16.6336C24.5991 16.511 24.5942 16.3924 24.5894 16.2821C25.3127 16.0451 25.4827 15.2155 24.9486 14.7005C24.8321 14.8885 24.638 15.0275 24.4049 15.0969C24.3418 14.8803 24.2883 14.7781 24.2835 14.7659L24.2544 14.7168H24.1913C24.1865 14.7168 23.9485 14.7046 23.5941 14.6719C23.9971 14.5616 24.2544 14.2468 24.1962 13.8259C23.5747 14.2755 22.9533 13.8463 22.8125 13.7278C22.4241 13.3437 22.3125 12.9104 22.4678 12.2484C22.599 11.6721 23.3077 10.7567 23.7738 10.4624C23.8418 10.5155 23.9485 10.6259 24.1767 10.6095C24.3078 10.5727 24.5263 10.4787 24.6913 10.4256C25.1622 10.3071 25.6186 10.397 25.9099 10.5564C26.4439 10.8302 26.3953 11.1326 26.3808 11.3533C27.1915 10.9692 26.91 10.3275 25.8467 10.0905C26.575 10.0905 27.1721 10.6504 27.3274 10.7199C27.7304 10.9692 28.3081 10.912 28.6431 10.7771C29.2888 10.5196 29.4199 9.87793 29.2451 9.74718C29.182 9.97609 28.9733 10.1804 28.5994 10.2172C28.046 10.2703 27.512 10.0701 27.0896 9.91068C26.7303 9.78394 26.1526 9.68994 25.7593 9.71043C26.4876 9.37119 27.6188 9.40795 28.0217 9.9311C28.2644 9.7676 28.4149 9.62052 28.4829 9.28128C28.6916 8.36581 27.8421 7.89582 26.9342 7.89582C26.9585 7.67516 26.774 7.56483 26.5313 7.63833C26.5313 7.54437 26.5022 7.4708 26.439 7.43402C26.4585 7.43402 26.4876 7.42585 26.507 7.42585C27.4197 7.37271 28.2839 7.13568 28.7499 6.72291C29.5655 5.98727 28.2644 5.05546 28.7305 4.33209C29.1772 4.49556 29.5072 4.70808 30.1238 4.78164C30.1869 4.89199 30.2452 5.11268 30.2646 5.2312C30.4636 6.04857 29.5072 6.18344 29.7549 7.05394C29.8617 7.45037 30.2161 7.58524 30.3326 8.05523C30.3326 8.05523 30.3762 8.38214 30.0364 8.66829C30.8229 8.68463 31.2356 8.12473 30.9929 7.60566C30.886 7.39316 30.6141 7.19289 30.6141 6.94359C31.0171 7.39316 31.3763 7.37681 31.9977 7.20924C32.2793 7.13568 32.3036 7.46672 32.1289 7.7324C32.556 7.51984 32.6628 7.17246 32.6628 7.01716C32.6628 6.64934 32.323 6.4777 31.9977 6.55125C31.8133 6.5676 31.4443 6.78012 31.42 6.4777C31.3424 5.95458 32.323 5.97501 32.1239 5.13311C32.0172 4.71216 31.4589 4.47921 30.5899 4.3893C30.5025 4.31574 30.284 4.14 30.1675 3.99287C29.6917 3.32671 29.1966 3.15098 28.9004 3.28584C28.5509 3.43297 28.3712 3.55967 28.0848 3.69045C27.8566 3.79262 27.6139 3.84575 27.4634 3.99287C27.0847 4.3893 27.4439 5.00233 27.6382 5.37833C27.7692 5.59901 28.0848 6.1017 27.944 6.4777C27.7886 6.92725 26.91 7.20924 26.3759 7.30324C26.342 7.30324 26.3176 7.31142 26.2837 7.31142V7.13568C26.439 6.90681 26.5702 6.63299 26.677 6.3837C27.0362 5.5745 26.5022 5.24755 25.7108 5.09224C25.6089 5.03911 25.5021 5.01868 25.371 5.05546H25.3467L25.3273 5.19033L25.2205 5.16172L25.2448 4.99825H25.1962C25.2884 4.94511 25.3273 4.85112 25.3273 4.76121C25.3273 4.66312 25.2836 4.58547 25.2399 4.53234H25.3467L25.303 4.49556C25.2836 4.45878 25.2399 4.42199 25.1719 4.36478C25.1525 4.34843 25.1283 4.31165 25.1283 4.29121C25.1477 4.30756 25.1719 4.328 25.2157 4.34435C25.2593 4.38113 25.3225 4.41791 25.3467 4.45469L25.4098 4.49148V3.75175L25.3467 3.7967C25.3273 3.81305 25.2593 3.84983 25.2157 3.8907C25.1719 3.92748 25.1525 3.92748 25.1283 3.94383C25.1283 3.92748 25.1477 3.90705 25.1719 3.87027C25.2399 3.83349 25.2836 3.78036 25.303 3.75175L25.3467 3.69453H24.4534L24.4971 3.75175C24.5409 3.77627 24.5942 3.83349 24.638 3.87027C24.6574 3.90705 24.6816 3.92748 24.701 3.94383C24.6768 3.92748 24.638 3.92748 24.6136 3.8907C24.536 3.85392 24.4971 3.81714 24.4534 3.7967L24.4195 3.75175V4.50373L24.4632 4.46695C24.5068 4.43017 24.5506 4.39339 24.6233 4.3566C24.6477 4.34026 24.6865 4.31982 24.7107 4.30348C24.6865 4.31982 24.6671 4.3566 24.6477 4.37704C24.6039 4.43426 24.5457 4.46695 24.5068 4.50782L24.4632 4.5446H24.6039C24.5263 4.59773 24.5068 4.67538 24.5068 4.77347C24.5068 4.86338 24.5506 4.95738 24.6233 5.0105H24.6039L24.6233 5.17398L24.5068 5.20259L24.4826 5.06772H24.4632C24.3321 5.03094 24.2253 5.05138 24.1379 5.1045C23.332 5.2598 22.7979 5.59085 23.1573 6.39596C23.2688 6.64526 23.4 6.91908 23.5602 7.14794V7.26646C22.7543 7.04577 21.3027 6.30196 20.9143 5.85241C20.8706 5.80745 20.8366 5.77067 20.8172 5.74206H20.8124L20.8269 5.25572C21.1085 4.85929 21.361 4.37295 21.5551 3.92748C22.0649 2.76272 21.3124 2.27639 20.1182 2.07613C19.9968 2.00257 19.8462 1.96579 19.6473 2.023L19.6035 2.20691L19.3511 2.19056L19.3705 1.95353C19.3365 1.9617 19.2928 1.9617 19.2491 1.9617C19.4191 1.88814 19.5405 1.7124 19.5405 1.53258C19.5405 1.4018 19.4627 1.2465 19.3317 1.17293H19.5405C19.4191 1.08302 19.2249 0.890939 19.1861 0.760159C19.3365 0.796942 19.5647 0.968587 19.6715 1.06258V0.110345C19.5647 0.183909 19.3365 0.367818 19.1861 0.384166C19.2249 0.277907 19.4191 0.0939983 19.5405 0H18.4093C18.4966 0.0939983 18.7151 0.277907 18.7346 0.384166C18.6034 0.367818 18.3849 0.183909 18.2636 0.110345V1.06258C18.3849 0.968587 18.5986 0.796942 18.7346 0.760159C18.7151 0.886848 18.4966 1.07893 18.4093 1.17293H18.6034C18.4724 1.2465 18.4093 1.4018 18.4093 1.53258C18.4093 1.7124 18.5161 1.89222 18.6908 1.9617C18.6472 1.9617 18.6034 1.9617 18.5355 1.94535L18.5598 2.18239L18.3073 2.19874L18.2831 2.01483C18.0889 1.9617 17.9384 1.99848 17.8072 2.06796C16.6227 2.2723 15.8702 2.75456 16.38 3.91931C16.5547 4.36478 16.8072 4.85521 17.1082 5.24755V5.75023C17.0888 5.76657 17.0645 5.80336 17.0208 5.84014C16.6421 6.28969 15.1808 7.03351 14.3749 7.2542V7.13568C14.5352 6.90681 14.6711 6.63299 14.7779 6.3837C15.1372 5.5745 14.6031 5.24755 13.7972 5.09224C13.705 5.03911 13.603 5.01868 13.4719 5.05546H13.4525L13.4283 5.19033L13.3215 5.16172L13.3409 4.99825H13.3215C13.3845 4.94511 13.4283 4.85112 13.4283 4.76121C13.4283 4.66312 13.4089 4.58547 13.3409 4.53234H13.4719L13.4283 4.49556C13.3845 4.45878 13.3409 4.42199 13.2972 4.36478C13.2777 4.34843 13.2438 4.31165 13.2195 4.29121C13.2438 4.30756 13.2972 4.328 13.3166 4.34435C13.3797 4.38113 13.4234 4.41791 13.4719 4.45469L13.5157 4.49148V3.75175L13.4719 3.7967C13.4283 3.81305 13.3845 3.84983 13.3166 3.8907C13.2972 3.92748 13.2438 3.92748 13.2195 3.94383C13.2438 3.92748 13.2729 3.90705 13.2972 3.87027C13.3409 3.83349 13.3845 3.78036 13.4283 3.75175L13.4719 3.69453H12.5787L12.6224 3.75175C12.6418 3.77627 12.7 3.83349 12.7438 3.87027C12.7874 3.90705 12.8068 3.92748 12.8068 3.94383C12.7923 3.9234 12.768 3.9234 12.7292 3.88662C12.6758 3.84983 12.6079 3.81305 12.5884 3.79262L12.5205 3.74766V4.49965L12.5884 4.46287C12.6079 4.42609 12.6758 4.3893 12.7292 4.35252C12.7729 4.33617 12.7923 4.31574 12.8117 4.29939C12.8117 4.31574 12.7923 4.35252 12.7486 4.37295C12.7049 4.43017 12.6467 4.46287 12.6273 4.50373L12.5835 4.54052H12.7C12.6467 4.59365 12.5981 4.6713 12.5981 4.76938C12.5981 4.85929 12.6418 4.95329 12.7438 5.00642H12.7L12.7244 5.16989L12.603 5.1985L12.5835 5.06364H12.5593C12.4282 5.02685 12.3214 5.04729 12.234 5.10042C11.4281 5.25572 10.894 5.58675 11.2534 6.39187C11.365 6.64117 11.4961 6.91499 11.6563 7.14385V7.31959C11.6223 7.31959 11.5932 7.31142 11.5689 7.31142C11.0349 7.21742 10.1416 6.93543 9.99115 6.48586C9.85029 6.10987 10.1659 5.60719 10.2969 5.3865C10.5057 5.0105 10.8552 4.39748 10.4863 4.00105C10.3212 3.85392 10.0833 3.80079 9.85029 3.69862C9.56876 3.57193 9.39394 3.44115 9.0347 3.29402C8.74828 3.15915 8.26281 3.3308 7.76762 4.00105C7.66082 4.14818 7.43264 4.31982 7.3404 4.39748C6.48111 4.48738 5.92766 4.71625 5.8063 5.14128C5.60725 5.98318 6.58792 5.96684 6.5248 6.48586C6.50053 6.7883 6.12185 6.57578 5.94708 6.55943C5.60725 6.48586 5.27228 6.65752 5.27228 7.02533C5.27228 7.18064 5.39364 7.52802 5.8063 7.74057C5.63152 7.47489 5.65094 7.14385 5.94708 7.21742C6.5685 7.38498 6.91318 7.40133 7.32098 6.95177C7.32098 7.19699 7.05883 7.40132 6.94231 7.61383C6.69957 8.13698 7.10252 8.69279 7.8987 8.67646C7.53944 8.39038 7.61227 8.0634 7.61227 8.0634C7.72393 7.59341 8.07347 7.45855 8.18999 7.06211C8.43272 6.19161 7.47148 6.05674 7.68024 5.23937C7.69965 5.12085 7.74334 4.90016 7.81131 4.78982C8.43272 4.71625 8.77256 4.50782 9.20467 4.34026C9.65131 5.06363 8.36476 5.99544 9.18517 6.73108C9.65616 7.14385 10.5251 7.38089 11.4281 7.43402C11.4475 7.43402 11.4767 7.4422 11.5009 7.44628C11.4378 7.48306 11.4038 7.55254 11.4038 7.64657C11.166 7.57299 10.9815 7.68332 11.0155 7.90399C10.0785 7.90399 9.25318 8.37397 9.4571 9.28945C9.52015 9.62869 9.67557 9.77577 9.92799 9.93926C10.3212 9.41619 11.4523 9.37936 12.1903 9.7186C11.7873 9.69818 11.2096 9.79218 10.8552 9.91885C10.4377 10.0742 9.90859 10.2785 9.35513 10.2253C8.97161 10.1886 8.77741 9.98834 8.69974 9.75535C8.52496 9.88618 8.65604 10.5237 9.30663 10.7852C9.63181 10.9202 10.2095 10.9773 10.6125 10.7281C10.7678 10.6545 11.365 10.0987 12.0981 10.0987C11.0398 10.3357 10.7436 10.9773 11.5737 11.3615C11.5398 11.1408 11.5009 10.8384 12.0301 10.5646C12.3262 10.4093 12.7923 10.3153 13.2535 10.4338C13.4137 10.4869 13.6322 10.5809 13.7633 10.6177C13.9914 10.6341 14.0983 10.5237 14.1662 10.4706C14.6371 10.7648 15.3216 11.6803 15.4721 12.2565C15.6372 12.9186 15.5158 13.3478 15.1226 13.736C14.9915 13.8545 14.3604 14.2836 13.7439 13.8341C13.6856 14.255 13.9428 14.5656 14.3458 14.6801C13.9866 14.7127 13.7439 14.725 13.739 14.725H13.6759L13.6516 14.774C13.6468 14.7822 13.5933 14.8885 13.5254 15.101C13.3021 15.0275 13.1079 14.8925 12.9913 14.7046C12.4573 15.2195 12.6224 16.0451 13.3409 16.2821C13.336 16.3965 13.3312 16.5151 13.3312 16.6417C12.7147 17.0422 11.5981 16.9564 11.0446 16.2698C10.6174 15.7467 11.1077 15.3707 11.3505 15.1623C11.9718 14.6596 11.9718 14.1733 11.5204 13.6338C10.9426 12.9104 9.17062 11.7252 8.48613 10.8629C8.37447 11.0182 8.31135 11.1653 8.28708 11.2226C7.64625 10.8139 6.92774 9.95968 6.68986 9.31803C6.55879 9.33444 6.46169 9.44886 6.35003 9.53061C5.35966 8.47614 3.55368 5.93823 3.04393 4.9492C1.96618 5.38241 1.9856 6.67387 2.31572 7.41359C2.60701 8.09198 3.09734 8.81538 4.1314 9.82485C3.80614 9.62052 1.7817 7.88357 1.33506 7.66291C0.587427 8.56197 1.09718 10.1477 2.50991 10.818C2.07784 10.6504 1.00979 10.3112 0.432074 10.4297C0.32527 11.4391 1.29137 12.1258 1.88851 12.5018C1.30593 12.3914 0.640832 12.3097 0 12.4649C0.0436933 13.1516 0.893277 13.924 2.08755 14.2796C1.32535 14.2141 0.553443 14.3 0.0825313 14.537C0.169917 15.2522 1.13116 15.8694 2.28174 16.0164C1.50983 16.09 0.825311 16.3761 0.466058 16.7684C0.888417 17.2343 1.50983 17.594 2.45651 17.5776C2.23804 17.6431 1.9856 17.7697 1.77199 17.9414C1.74771 17.925 1.70402 17.9046 1.66518 17.9046C1.61664 17.921 1.60207 17.9781 1.61664 18.015C1.61664 18.015 1.61664 18.015 1.61664 18.0435C1.5244 18.0967 1.47585 18.162 1.46614 18.2275C1.37876 18.3337 1.28652 18.4563 1.23796 18.5667C1.26223 18.5749 1.28166 18.5953 1.30108 18.6034C1.29622 18.6607 1.31564 18.7301 1.36905 18.7996C1.32535 18.8364 1.30593 18.8895 1.28166 18.9468L0.728211 18.7588C0.699088 19.1838 0.810749 19.5312 1.06319 19.7477C1.26223 19.9398 1.49042 19.9112 1.42245 19.9767L2.02444 20.2872C2.13124 20.4793 2.3497 20.4793 2.5002 20.4262C2.5002 20.4262 2.5002 20.4426 2.5002 20.463C2.5002 20.6632 2.66527 20.8267 2.87888 20.8921C2.83518 21.0596 2.92257 21.1659 3.19444 21.2435L5.45675 25.8617C5.36937 26.0824 5.45676 26.2745 5.6558 26.3481C5.60725 26.4012 5.56842 26.4584 5.56842 26.5687C5.6558 26.5156 5.78688 26.4952 5.84999 26.6505C5.89368 26.7608 5.6558 27.1164 6.01505 27.3575C5.96651 27.57 6.10244 27.7866 6.35974 27.8806C6.35974 27.991 6.48111 28.3465 6.50053 28.4733C6.34032 28.6653 5.96651 28.9596 6.01505 29.2824C6.05875 29.5113 6.16555 29.5849 6.38402 29.6421C6.29663 30.0549 6.5685 30.2388 6.98115 30.2592C6.98115 30.5616 7.31613 30.6679 7.53459 30.6883C7.74334 30.8191 7.83073 30.8722 8.06862 30.9744C7.85015 31.191 8.0055 31.4771 8.40359 31.5711C8.44728 31.6978 8.55895 31.8082 8.78227 31.8531C8.91334 32.037 9.15122 32.037 9.29198 31.9838C9.37939 31.9471 9.5348 31.7346 9.39879 31.5507C9.4862 31.4608 9.44254 31.285 9.37939 31.1747C9.51045 30.9744 9.39879 30.7251 9.21922 30.6515C9.24347 30.5412 9.17547 30.3655 9.13181 30.2592C9.44739 30.0916 9.84058 29.8832 9.98135 29.8096C10.7533 29.3437 11.6272 28.9269 12.6176 28.8738C12.87 28.8533 13.336 28.837 13.5982 28.8533C14.0012 28.8901 14.5546 28.9922 14.8799 28.7798C14.9818 28.7266 15.0449 28.6326 15.0255 28.5427C14.9818 28.3302 14.7099 28.1463 14.6225 27.9583C14.5983 27.9011 14.5595 27.8153 14.5157 27.7376C14.7973 27.7785 15.0595 27.7458 15.2197 27.6804C15.3944 27.6273 15.8168 27.3616 15.7974 26.9652C15.4576 27.1 14.6419 27.284 14.5546 26.5892C14.4672 25.9762 15.1081 25.453 16.1129 25.6819C16.7974 25.829 17.7975 27.0551 16.8848 27.5905C16.4382 27.8479 15.7537 28.0932 15.8411 28.7634C16.1324 28.461 16.5256 28.3139 17.0354 28.3506C16.2877 28.8165 15.71 28.8738 14.9235 29.2293C14.239 29.5685 13.7292 30.1285 13.1904 30.1448C12.7777 30.1611 12.5496 29.7483 12.9525 29.4296C12.5496 29.356 12.0155 29.6216 11.865 29.9772C11.6708 30.4635 11.8214 30.8109 12.1806 31.0071C11.6952 31.2278 11.331 31.6569 11.5058 32.2699C11.6708 32.7726 12.268 32.7726 12.0399 33.4143C12.3748 33.3407 12.5932 33.1486 12.6903 32.8748C12.7341 32.6827 12.7777 32.4825 12.8894 32.3885C12.8409 32.7726 13.103 33.3407 13.7292 33.5982C14.1516 33.774 14.8167 33.8434 15.3265 33.398C15.5352 33.9006 16.2392 34.3339 16.9722 34.3134C17.3072 34.3134 17.6374 34.1908 17.8849 34.0682C18.0598 34.4401 18.5064 34.8202 18.9481 35C19.4044 34.8202 19.8511 34.4401 20.0356 34.0682C20.2783 34.1949 20.6133 34.3134 20.9386 34.3134C21.6425 34.3298 22.3853 33.9006 22.5843 33.398C23.0941 33.8434 23.7592 33.774 24.1816 33.5982C24.803 33.3407 25.0651 32.7726 25.0215 32.3885C25.138 32.4825 25.1816 32.6827 25.2302 32.8748C25.3176 33.1486 25.5312 33.3407 25.871 33.4143C25.6428 32.7726 26.2546 32.7726 26.405 32.2699C26.5799 31.6569 26.2205 31.2237 25.7399 31.0071C26.0895 30.815 26.2546 30.4676 26.0458 29.9772C25.8953 29.6216 25.3613 29.356 24.9583 29.4296C25.3613 29.7483 25.1428 30.1611 24.7204 30.1448C24.1865 30.1285 23.6767 29.5644 22.9873 29.2293C22.2057 28.8697 21.628 28.8165 20.8754 28.3506C21.3852 28.3139 21.7881 28.461 22.0698 28.7634C22.1572 28.0932 21.4726 27.8479 21.026 27.5905C20.123 27.0551 21.1134 25.829 21.8125 25.6819C22.8028 25.453 23.4582 25.9762 23.3562 26.5892C23.2494 27.288 22.4533 27.1041 22.094 26.9652C22.094 27.3575 22.5164 27.6232 22.6911 27.6804C22.895 27.7621 23.2738 27.8071 23.6087 27.6845C23.599 27.7539 23.5844 27.8275 23.5844 27.8479C23.5165 28.4446 23.1378 28.4978 23.2688 28.743C23.4534 28.9269 24.6719 28.8901 25.0021 28.9473C25.5798 29.0127 26.0701 29.1925 26.6235 29.2866C27.245 29.3969 27.9051 29.3969 28.4635 29.589C28.8227 29.7197 29.2257 29.965 29.5752 30.1121C30.1093 30.1856 30.0219 30.3695 30.3617 30.3695C30.6676 30.3695 30.7841 30.1489 31.1773 30.059C31.4492 30.0058 31.755 30.0957 32.0269 30.0221C32.2259 29.9854 32.3133 29.8137 32.4978 29.7197C32.7163 29.6094 33.0221 29.6094 33.226 29.45C33.3328 29.3682 33.357 29.213 33.3376 29.1027L33.3425 29.1272C33.76 28.8819 34.0756 28.5223 34.2503 28.1095C34.3571 28.0932 34.4445 28.0114 34.4445 27.9174C34.4445 27.9011 34.4445 27.8806 34.4445 27.8806C34.5514 27.8071 34.6193 27.6967 34.6193 27.5864C34.6193 27.4475 34.5562 27.3371 34.4445 27.2472C34.4445 27.2472 34.4445 27.2267 34.4445 27.2104C34.4445 27.1368 34.4009 27.0837 34.3571 27.0346C34.1824 26.2377 33.4639 25.5961 32.5366 25.3958C32.5366 25.3754 32.5366 25.3754 32.5366 25.359H32.5172C32.5172 25.3223 32.4978 25.3018 32.4638 25.3018C32.3327 25.1915 32.1774 25.0199 32.158 24.9095C32.3084 24.9463 32.5609 25.1465 32.6919 25.2283V24.1739C32.5609 24.2556 32.3133 24.4559 32.158 24.4926C32.1774 24.3619 32.4152 24.133 32.5366 24.0431H31.2647C31.3812 24.133 31.6239 24.3619 31.6433 24.4926C31.4929 24.4559 31.2404 24.2556 31.1142 24.1739V25.2283C31.2453 25.1465 31.4929 24.9463 31.6433 24.9095C31.6239 25.0403 31.3812 25.2691 31.2647 25.359L31.3083 25.3754C30.3617 25.5593 29.5995 26.2214 29.4247 27.0346C29.3616 27.0796 29.3179 27.1368 29.3179 27.2104C29.3179 27.2267 29.3179 27.2472 29.3179 27.2472C29.2063 27.3371 29.1431 27.4475 29.1431 27.5864C29.1431 27.6926 29.2063 27.8071 29.3179 27.8806C29.3179 27.8806 29.3179 27.897 29.3179 27.9174C29.3179 28.0359 29.4053 28.0932 29.5121 28.1095C29.5558 28.2117 29.6092 28.3139 29.6675 28.4038C29.6675 28.3956 29.6675 28.3956 29.682 28.3833C29.6043 28.6858 29.1674 28.8697 29.0704 28.8697C28.2936 28.9637 27.4342 28.6858 26.6526 28.4405C26.3079 28.3302 25.837 28.2035 25.6089 27.9174C25.4681 27.709 25.4049 27.5782 25.4778 27.3943C25.5652 27.4842 25.706 27.5864 25.905 27.6763C25.9244 27.5864 25.9244 27.4842 25.9681 27.4106C26.1672 27.66 26.4828 27.7866 26.8614 27.7703C26.6332 27.6068 26.5264 27.1736 26.6332 26.7976C26.9488 27.2472 28.1479 27.3371 28.3663 26.532C27.9197 26.7077 27.6333 26.5156 27.5508 26.3113C27.4197 25.9884 27.8566 25.2078 27.4634 24.607C27.1479 24.1575 26.7885 23.8837 25.9536 23.7733C26.0167 23.6875 26.041 23.614 26.0604 23.4872C25.2884 23.7243 24.6233 23.5404 24.3078 23.0213C24.4632 23.0745 24.6865 23.0949 24.9049 23.0949C24.2204 22.6249 24.2641 21.2967 24.7545 20.6101C24.8175 20.5733 24.8418 20.5366 24.9049 20.5202C25.0554 20.7776 25.5021 20.7776 25.7302 20.9861C25.8176 20.9125 25.8613 20.8921 25.9487 20.8308C25.9487 20.8308 25.9681 21.922 26.0555 22.3715C26.1429 22.8742 26.7206 22.8211 27.0168 23.0418C27.3663 22.7189 27.9974 22.7353 27.9003 22.1794C27.813 21.6236 27.6818 21.1169 27.6624 20.7409C27.8566 21.0801 28.2401 22.3552 28.3907 22.7189C28.6383 23.2584 29.2596 23.0949 29.6092 23.3074C29.8373 22.9314 30.4151 22.8211 30.1869 22.253C30.1238 22.1059 29.1772 20.4303 29.0363 20.1074C29.3713 20.5202 30.2888 21.9955 30.5705 22.4083C30.886 22.8374 31.4638 22.629 31.8763 22.7353C31.9541 22.4247 32.5124 22.065 32.1045 21.5255C31.5948 20.8104 30.3956 19.5638 30.3326 19.3881C30.5705 19.5802 32.4298 21.5255 32.5754 21.6318C33.0075 21.9506 33.6387 21.7054 34.0125 21.7054C34.0125 21.3498 34.3474 20.9452 33.862 20.5325C33.4153 20.1728 32.391 19.5598 32.1725 19.3513C32.857 19.7477 33.6629 20.3771 34.1435 20.4793C34.9932 20.6632 35.2989 20.3771 35.6145 20.2668C35.3524 19.617 35.7019 19.3146 33.9056 18.6811C35.4592 19.147 36.1486 18.9181 36.702 18.5503C36.4836 18.0844 35.9301 17.6921 35.4786 17.5613C36.4301 17.5776 37.0613 17.2221 37.474 16.7521C37.1244 16.3598 36.4301 16.0737 35.6339 16.0001C36.8088 15.8653 37.7458 15.2522 37.8526 14.537ZM1.81568 19.3391C1.79626 19.3391 1.79626 19.3554 1.77199 19.3758C1.64091 19.3595 1.64091 19.2288 1.66518 19.1184C1.72829 19.1184 1.77199 19.102 1.81568 19.0653L1.8351 19.0857L1.77199 19.1225C1.79626 19.1919 1.79626 19.2655 1.81568 19.3391ZM2.2429 20.1074L2.02929 20.0012C2.11668 19.9153 2.19921 19.9153 2.2866 19.9644C2.2866 20.0175 2.2866 20.0707 2.2429 20.1074ZM2.88373 18.9631C2.8546 18.9631 2.82547 18.9631 2.79635 18.9631C2.79149 18.959 2.78664 18.9509 2.78178 18.9468C2.82062 18.9386 2.86431 18.9386 2.8983 18.9304C2.8983 18.9386 2.88859 18.9509 2.88373 18.9631ZM15.2294 32.3517C14.6954 32.3517 14.3167 32.0697 14.5886 31.6733C14.7293 31.8531 15.011 31.9348 15.2537 31.9553C15.2294 32.1432 15.2294 32.1964 15.2294 32.3517ZM23.3514 31.6733C23.6233 32.0697 23.2446 32.3517 22.7106 32.3517C22.7106 32.1964 22.7106 32.1432 22.6669 31.9553C22.9144 31.9389 23.2058 31.8613 23.3514 31.6733ZM15.21 7.41359C16.4285 7.19289 17.6713 6.61664 18.2296 6.13031C18.6908 6.15483 19.2879 6.15891 19.7394 6.1344C20.288 6.62482 21.5115 7.18881 22.7349 7.4095C22.0261 7.4095 20.7881 7.35637 20.6327 7.20924C20.6765 7.58524 21.6231 8.01023 22.2445 8.12473C21.7299 8.17781 21.2542 8.12473 20.8512 7.9694C21.0697 8.23506 21.3221 8.4353 21.7348 8.5538C21.3027 9.00337 20.4094 9.29353 19.5259 9.22403C19.7443 9.44477 20.1473 9.58369 20.4968 9.54286C19.7006 10.6095 19.1132 11.7048 18.9724 12.9718H18.9676V12.9758C18.8364 11.7048 18.249 10.6095 17.4577 9.54286C17.8169 9.57961 18.2102 9.44477 18.4141 9.22403C17.5209 9.29761 16.6615 9.00337 16.2149 8.5538C16.6324 8.4353 16.88 8.23506 17.0985 7.9694C16.7053 8.12473 16.2149 8.17781 15.7052 8.12473C16.3265 8.00615 17.283 7.58524 17.3266 7.20924C17.1568 7.36046 15.9188 7.41359 15.21 7.41359ZM4.03916 18.6893C3.9275 18.7301 3.79157 18.7792 3.68962 18.8159C3.68962 18.8078 3.68962 18.7996 3.68962 18.7914C3.79643 18.7547 3.93236 18.7219 4.03916 18.6893ZM11.8747 23.4913C11.899 23.6181 11.9185 23.6916 11.9815 23.7774C11.1417 23.8878 10.7873 24.1616 10.4814 24.6111C10.0542 25.216 10.5009 25.9966 10.3795 26.3154C10.2921 26.5156 10.0154 26.7118 9.56876 26.5361C9.78723 27.3453 10.9815 27.2513 11.297 26.8017C11.4038 27.1777 11.297 27.6109 11.0786 27.7744C11.4523 27.7907 11.7679 27.664 11.9621 27.4147C12.0058 27.4883 12.0058 27.5905 12.0252 27.6804C12.234 27.5905 12.365 27.4883 12.4524 27.3984C12.4865 27.4883 12.5253 27.7008 12.4767 27.8724C12.3165 27.9624 12.1369 28.0482 11.8553 28.1709C11.4087 28.3548 10.5931 28.6203 10.1271 28.6735C9.74348 28.7266 9.07836 28.5427 8.90849 28.0932C8.75313 27.664 8.33077 27.5251 7.99579 27.7907C7.90841 27.7376 7.67053 27.6967 7.56858 27.8316C7.56858 27.8316 7.46178 27.6273 7.33069 27.5292C7.41808 27.3085 7.35011 27.0428 7.11223 26.9529C7.09281 26.5197 6.77725 26.5197 6.66559 26.3726C6.60248 26.2827 6.60248 26.1682 6.75297 26.1519C6.68987 26.0702 6.55393 26.0538 6.53451 26.0538C6.57821 25.8699 6.51024 25.641 6.21895 25.5675L3.63622 21.0801C3.80128 20.933 3.71389 20.7205 3.52941 20.6469C3.52941 20.6469 3.52941 20.6306 3.52941 20.6101C3.54397 20.5733 3.54883 20.5488 3.55368 20.5202C3.62165 20.512 3.70904 20.4956 3.78186 20.4793C4.29161 20.3771 5.08779 19.7477 5.77717 19.3513C5.53443 19.5638 4.53435 20.1769 4.08771 20.5325C3.67021 20.8798 3.84497 21.2272 3.91294 21.5419L4.01003 21.7176C4.38871 21.7381 4.95672 21.9302 5.37908 21.6359C5.51016 21.5255 7.37439 19.5802 7.62198 19.3922C7.52488 19.5679 6.35003 20.8145 5.81601 21.5296C5.42277 22.0691 6.00049 22.4247 6.06846 22.7393C6.49082 22.629 7.06854 22.8415 7.37439 22.4124C7.67053 21.9996 8.57351 20.5243 8.90849 20.1115C8.77741 20.4344 7.82102 22.11 7.75306 22.2571C7.52488 22.8252 8.1026 22.9355 8.33077 23.3115C8.68032 23.099 9.30663 23.2666 9.54935 22.723C9.69982 22.3593 10.0833 21.0842 10.2824 20.745C10.2581 21.121 10.1271 21.6277 10.0397 22.1835C9.95225 22.7434 10.5737 22.723 10.899 23.0459C11.2145 22.8252 11.7922 22.8783 11.8796 22.3756C11.967 21.9261 11.9864 20.8349 11.9864 20.8349C12.0738 20.9003 12.1175 20.9166 12.2146 20.9902C12.4282 20.7776 12.8797 20.7776 13.0302 20.5243C13.0982 20.5406 13.1176 20.5774 13.1856 20.6142C13.6759 21.3008 13.7147 22.629 13.0302 23.099C13.2292 23.099 13.4768 23.0786 13.6274 23.0254C13.3263 23.5445 12.6515 23.7284 11.8747 23.4913ZM16.7004 29.7688C16.2974 30.2347 15.9819 30.5739 15.7197 31.1543C15.2488 31.1174 15.3411 30.6311 15.4916 30.3859C15.8071 29.8996 17.0888 29.2661 17.7345 28.6326C17.448 29.0372 17.05 29.4051 16.7004 29.7688ZM18.0937 30.6311C17.8316 31.4893 17.6471 32.7563 17.7345 33.3244C16.8315 32.928 17.3412 31.3994 17.6907 30.7415C18.1763 29.826 18.5161 28.7062 18.6278 27.991C18.9093 28.5345 18.2831 30.0508 18.0937 30.6311ZM20.2056 33.3244C20.2929 32.7563 20.1182 31.4893 19.8462 30.6311C19.657 30.0508 19.0355 28.5345 19.3123 27.991C19.4191 28.7062 19.7589 29.8219 20.2492 30.7415C20.5988 31.3994 21.1085 32.928 20.2056 33.3244ZM22.4484 30.3818C22.6038 30.6311 22.6911 31.1134 22.2202 31.1501C21.9581 30.5698 21.6425 30.2347 21.2542 29.7647C20.8901 29.4051 20.492 29.0332 20.2056 28.6285C20.8463 29.2661 22.1328 29.8955 22.4484 30.3818ZM22.3367 23.8224C21.1571 25.7514 18.9967 27.3207 18.9724 27.3003C18.9481 27.3248 16.7877 25.7514 15.6081 23.8224C14.4284 21.8974 13.671 18.8691 13.6322 17.4223C13.5885 15.9756 13.9283 15.3585 13.9283 15.3585C13.9283 15.3585 15.4041 15.289 16.5839 14.9457C17.5839 14.6556 18.6714 13.9158 18.9773 13.6992C19.2831 13.9158 20.3706 14.6515 21.3755 14.9457C22.5504 15.2931 24.0262 15.3585 24.0262 15.3585C24.0262 15.3585 24.3612 15.9797 24.3175 17.4223C24.2689 18.8691 23.5117 21.8974 22.3367 23.8224Z" fill="#E6F7FF"/>
</svg>
